Coordinates
version=1
nRows=16
nColumns=28
inDegrees=yes

Units are S.I. units (second, meters, Newtons, ...)
Angles are in degrees.

endheader
time	pelvis_tilt	pelvis_list	pelvis_rotation	pelvis_tx	pelvis_ty	pelvis_tz	hip_flexion_r	hip_adduction_r	hip_rotation_r	knee_angle_r	ankle_angle_r	subtalar_angle_r	mtp_angle_r	hip_flexion_l	hip_adduction_l	hip_rotation_l	knee_angle_l	socket_flexion	socket_adduction	socket_rotation	socket_tx	socket_ty	socket_tz	foot_flex	lumbar_extension	lumbar_bending	lumbar_rotation
      0.31666667	      2.45265370	     -1.44234060	     -4.51297275	     -0.42059041	      1.03172739	      0.26586475	     14.22630795	      1.11497038	     -2.98967553	    -60.95108081	     12.06732856	    -15.92361891	     -7.90759420	     -2.51481647	     -0.48324039	     -6.88733107	     -1.79468132	      1.77039672	      0.27866093	     15.49270428	      0.00000000	     -0.00848278	      0.00000000	     -0.63200109	    -12.17825690	     -1.85446148	      2.82380377
      0.32083333	      2.71519372	     -1.93819846	     -4.11491651	     -0.41493037	      1.03268635	      0.26509012	     14.14262580	      1.55238545	     -3.44273819	    -60.01935461	     12.70586818	    -15.54558722	     -8.19014784	     -3.24373926	     -0.97574849	     -6.90384711	     -1.57192172	      1.83856532	      0.31812315	     15.87997259	      0.00000000	     -0.00865566	      0.00000000	     -0.44392407	    -12.49341573	     -1.14363854	      2.20214044
      0.32500000	      2.73650226	     -1.93981872	     -4.06990354	     -0.41010699	      1.03301751	      0.26501290	     14.67434168	      1.55702232	     -3.49191602	    -59.55698869	     12.79087451	    -15.55913801	     -8.18798670	     -3.55768196	     -0.95508798	     -6.89969149	     -1.60660583	      1.76643161	      0.30318848	     15.90816735	      0.00000000	     -0.00846426	      0.00000000	     -0.39623167	    -12.61345758	     -1.14266671	      2.19654805
      0.32916667	      2.72015204	     -2.03034467	     -3.86663749	     -0.40467489	      1.03356153	      0.26474512	     15.00994465	      1.66450380	     -3.62629850	    -58.72694623	     13.13482067	    -15.59574382	     -8.17995277	     -3.88588954	     -1.03720499	     -6.92055257	     -1.56550219	      1.75134628	      0.29531834	     16.06409299	      0.00000000	     -0.00802444	      0.00000000	     -0.20350413	    -12.56255064	     -1.02003637	      2.15448042
      0.33333333	      2.80311460	     -2.50590774	     -3.56285130	     -0.39917882	      1.03395085	      0.26415715	     15.19862445	      2.08860252	     -4.06596631	    -57.88862365	     13.60413981	    -15.45580370	     -8.34369901	     -4.40994913	     -1.54194275	     -6.95405911	     -1.34717221	      1.79990643	      0.34405551	     16.43610166	      0.00000000	     -0.00850158	      0.00000000	     -0.10799941	    -12.69169734	     -0.35202717	      1.82450375
      0.33750000	      2.82434354	     -2.51271877	     -3.46835769	     -0.39415439	      1.03432943	      0.26404618	     15.60206895	      2.10306982	     -4.12832133	    -57.17511720	     13.73665589	    -15.47500899	     -8.37778161	     -4.73439350	     -1.52990519	     -6.96060466	     -1.36495670	      1.75191906	      0.32347179	     16.46623968	      0.00000000	     -0.00816464	      0.00000000	      0.00154506	    -12.77275290	     -0.33121311	      1.78393187
      0.34166667	      3.11526571	     -2.93665337	     -3.14338610	     -0.38881283	      1.03507799	      0.26347500	     15.52015004	      2.47147109	     -4.53652371	    -56.18799497	     14.05011112	    -15.44332294	     -8.91408971	     -5.47681312	     -1.97099666	     -6.87959113	     -1.12178680	      1.80317687	      0.37792131	     16.70097092	      0.00000000	     -0.00832600	      0.00000000	      0.13474904	    -13.15632450	      0.25592970	      1.33697076
      0.34583333	      3.11485557	     -2.91388840	     -3.05446394	     -0.38378282	      1.03532216	      0.26337858	     15.92689010	      2.44144737	     -4.61375785	    -55.43287411	     14.20711817	    -15.49430420	     -8.94504114	     -5.78216826	     -1.92922162	     -6.89926120	     -1.12901936	      1.75712881	      0.35169739	     16.72478892	      0.00000000	     -0.00802787	      0.00000000	      0.23418462	    -13.20256983	      0.24223022	      1.33759188
      0.35000000	      3.24586245	     -3.23502422	     -2.78575644	     -0.37842137	      1.03573084	      0.26294014	     16.03358760	      2.70889241	     -4.99817822	    -54.44854864	     14.52676629	    -15.56021029	     -9.33884913	     -6.33893418	     -2.27814798	     -6.85796671	     -0.90434901	      1.81858819	      0.39373452	     16.97465547	      0.00000000	     -0.00814749	      0.00000000	      0.35828518	    -13.37112020	      0.68487082	      1.13091950
      0.35416667	      3.24306784	     -3.20182988	     -2.72684144	     -0.37345613	      1.03593437	      0.26288706	     16.41837232	      2.66812263	     -5.06288854	    -53.62520567	     14.65217042	    -15.60159698	     -9.38066720	     -6.63785224	     -2.22482655	     -6.87601156	     -0.91997612	      1.76844604	      0.37340189	     16.97719969	      0.00000000	     -0.00783377	      0.00000000	      0.46451949	    -13.42162305	      0.65713945	      1.11829260
      0.35833333	      3.23421864	     -3.21233030	     -2.61371786	     -0.36830919	      1.03612471	      0.26282002	     16.73987442	      2.66489513	     -5.19334369	    -52.69974803	     14.82637606	    -15.67350323	     -9.44076262	     -6.96323757	     -2.23809780	     -6.87012226	     -0.88954095	      1.71952614	      0.36390049	     17.06655669	      0.00000000	     -0.00751461	      0.00000000	      0.60640360	    -13.42470451	      0.68058720	      1.09237617
      0.36250000	      3.23676509	     -3.28470894	     -2.46725117	     -0.36316427	      1.03627146	      0.26263510	     17.02502711	      2.71105659	     -5.39763524	    -51.72609443	     15.00735582	    -15.76548725	     -9.53321161	     -7.30398320	     -2.31274201	     -6.87006818	     -0.83107501	      1.70511989	      0.35821480	     17.19721320	      0.00000000	     -0.00735594	      0.00000000	      0.73928145	    -13.45474370	      0.78724592	      1.03900442
      0.36666667	      3.38494595	     -3.70559181	     -2.15764351	     -0.35779438	      1.03658669	      0.26207204	     17.01762037	      3.04402896	     -5.90573607	    -50.53336183	     15.17080356	    -15.97870394	     -9.96664363	     -7.89221951	     -2.78132263	     -6.83907851	     -0.57481710	      1.78151341	      0.41013011	     17.44610172	      0.00000000	     -0.00766025	      0.00000000	      0.85473495	    -13.64180811	      1.38739522	      0.75542425
      0.37083333	      3.38959805	     -3.65439205	     -2.08747756	     -0.35290022	      1.03667086	      0.26212142	     17.32289505	      3.00957133	     -5.94648192	    -49.55876288	     15.27368977	    -16.02963341	    -10.06453728	     -8.20642732	     -2.72697134	     -6.82540671	     -0.55658730	      1.73792757	      0.41027839	     17.46281151	      0.00000000	     -0.00734649	      0.00000000	      0.96591298	    -13.70531872	      1.33164813	      0.71767907
      0.37500000	      3.82135804	     -3.95175380	     -1.86991809	     -0.34785321	      1.03739544	      0.26183958	     16.99662139	      3.28958669	     -6.23092791	    -48.28409816	     15.50580001	    -16.38690995	    -11.55599298	     -9.23326871	     -3.02689837	     -6.60823678	      0.12505607	      2.05783792	      0.54896779	     17.35675120	      0.00000000	     -0.00726168	      0.00000000	      1.06691263	    -14.25942356	      1.74073551	      0.44468343
      0.37916667	      3.74972823	     -3.89388146	     -1.79248154	     -0.34286821	      1.03729972	      0.26184399	     17.33899989	      3.22481514	     -6.32791418	    -47.23600348	     15.66168770	    -16.40275809	    -11.62124742	     -9.47467802	     -2.97349538	     -6.60815750	      0.16349790	      2.04582729	      0.54460211	     17.44012563	      0.00000000	     -0.00696536	      0.00000000	      1.21478082	    -14.20602064	      1.66301907	      0.47573916
